# xmcd CD database file
#
# Track frame offsets:
#	150
#	14275
#	31325
#	39662
#	51489
#	63164
#	77240
#	93941
#	104699
#	117233
#	126918
#	139362
#	153182
#	161730
#	171863
#	186495
#
# Disc length: 2649 seconds
#
# Revision: 0
# Processed by: cddbd v1.5.2PL0 Copyright (c) Steve Scherf et al.
# Submitted via: CDex 1.51
#
DISCID=e00a5710
DTITLE=Johnny Cash - Starbucks Opus Collection
DYEAR=2012
DGENRE=Country
TTITLE0=The Long Black Veil
TTITLE1=(Ghost) Riders in the Sky
TTITLE2=Guess Things Happen That Way
TTITLE3=Ring of Fire
TTITLE4=I Still Miss Someone
TTITLE5=Orange Blossom Special
TTITLE6=Girl for the north Country (W/Bob Dylan)
TTITLE7=In the Jailhouse Now
TTITLE8=Jackson (W/June Carter)
TTITLE9=The Man on the Hill
TTITLE10=I Walk the Line
TTITLE11=It Ain't Me Babe
TTITLE12=The Rebel - Johhny Yuma
TTITLE13=Get Rhythm
TTITLE14=25 Minutes to Go
TTITLE15=Folsom Prison Blues (Live)
EXTD=YEAR: 2012
EXTT0=
EXTT1=
EXTT2=
EXTT3=
EXTT4=
EXTT5=
EXTT6=
EXTT7=
EXTT8=
EXTT9=
EXTT10=
EXTT11=
EXTT12=
EXTT13=
EXTT14=
EXTT15=
PLAYORDER=
